<svg role="img" viewBox="0 0 24 24" xmlns="http://www.w3.org/2000/svg">
  <title>AirPods Max</title>
  <path d="M3.125 10.125a9.01 9.01 0 0 0 8.868 8.875h.007a9.01 9.01 0 0 0 8.875-8.868v-.007a9.01 9.01 0 0 0-8.868-8.875h-.007a9.01 9.01 0 0 0-8.875 8.868v.007zm14.508 1.5c-.75 0-1.375.625-1.375 1.375v2.875c0 .75.625 1.375 1.375 1.375s1.375-.625 1.375-1.375v-2.875c0-.75-.625-1.375-1.375-1.375zm-11.25 0c-.75 0-1.375.625-1.375 1.375v2.875c0 .75.625 1.375 1.375 1.375s1.375-.625 1.375-1.375v-2.875c0-.75-.625-1.375-1.375-1.375z" fill="currentColor"/>
</svg>