<svg role="img" viewBox="0 0 24 24" xmlns="http://www.w3.org/2000/svg">
  <title>Apple Music</title>
  <path d="M12 0C5.373 0 0 5.373 0 12s5.373 12 12 12 12-5.373 12-12S18.627 0 12 0zm0 18.88c-3.798 0-6.88-3.082-6.88-6.88S8.202 5.12 12 5.12s6.88 3.082 6.88 6.88-3.082 6.88-6.88 6.88zm-2.06-9.52v5.36c0 .48.38.88.88.88h.08c.5-.02.88-.42.88-.88v-3.61c0-.44-.32-.8-.76-.84l-.12-.02c-.48 0-.88.4-.88.88zm3.94 2.14a.884.884 0 0 0 .88-.88V6.26c0-.48-.4-.88-.88-.88h-.08c-.48.02-.88.42-.88.88v5.36c0 .44.32.8.76.84l.12.02z" fill="#FB233D"/>
</svg>