<svg role="img" viewBox="0 0 24 24" xmlns="http://www.w3.org/2000/svg">
  <title>App Store</title>
  <path d="M11.996 0C5.37 0 0 5.37 0 12s5.37 12 11.996 12C18.622 24 24 18.63 24 12S18.622 0 11.996 0zm3.425 16.324a.554.554 0 01-.392.164.56.56 0 01-.39-.164L12 13.7l-2.64 2.624a.554.554 0 01-.39.164.56.56 0 01-.392-.164.555.555 0 01-.164-.392c0-.15.056-.282.164-.39L11.216 12 8.59 9.364a.554.554 0 01-.163-.392c0-.15.055-.282.163-.39a.554.554 0 01.392-.165.56.56 0 01.39.165L12 11.291l2.64-2.624a.554.554 0 01.39-.165.56.56 0 01.392.165.555.555 0 01.164.39c0 .15-.056.282-.164.392L12.776 12l2.64 2.624c.108.108.163.24.163.39 0 .15-.055.282-.164.392z" fill="#0D96F6"/>
</svg>