<svg role="img" viewBox="0 0 24 24" xmlns="http://www.w3.org/2000/svg">
  <title>Discord</title>
  <path d="m20.283 3.655-.014-.015c-.256-.231-.54-.436-.847-.616a.595.595 0 0 0-.17-.086c-.02-.01-.039-.018-.059-.027-.231-.098-.472-.18-.72-.249-.047-.013-.094-.026-.142-.038a.576.576 0 0 0-.235-.044H2.43c-1.103 0-2 .897-2 2v15.25c0 1.103.897 2 2 2h17.143c1.103 0 2-.897 2-2V5.655c0-.448-.146-.869-.401-1.226a1.94 1.94 0 0 0-.847-.774zM8.442 16.632s-.442-.515-.815-1.02c1.802-.459 2.536-1.332 2.536-1.332s.181.037.354.08c.504.13.978.274 1.42.428.872.296 1.713.568 2.52.808.188.055.372.106.552.155.08.022.159.043.237.063.16.04.318.077.475.112.229.05.454.095.675.137.285.053.568.098.847.135a.6.6 0 0 0 .108.01.62.62 0 0 0 .106-.01c.29-.04.577-.088.86-.14.22-.04.436-.084.647-.13.155-.034.308-.068.458-.103.076-.018.15-.036.223-.055.18-.047.357-.097.53-.15.823-.243 1.68-.52 2.527-.817.218-.077.43-.157.636-.24.168-.068.328-.14.48-.216.035-.018.068-.037.1-.055s1.95 2.152 1.95 2.152-2.185.952-4.96.952c-2.775 0-4.96-.952-4.96-.952zm3.36-4.596c.94 0 1.702-.855 1.702-1.91s-.762-1.91-1.702-1.91c-.94 0-1.702.855-1.702 1.91s.762 1.91 1.702 1.91zm-5.284 0c.94 0 1.702-.855 1.702-1.91s-.762-1.91-1.702-1.91c-.94 0-1.702.855-1.702 1.91s.763 1.91 1.702 1.91z" fill="#5865F2"/>
</svg>