<svg xmlns="http://www.w3.org/2000/svg" width="24" height="24" viewBox="0 0 24 24" fill="none" stroke="currentColor" stroke-width="2" stroke-linecap="round" stroke-linejoin="round"><path d="M16.5 8.5h1a2 2 0 0 1 2 2v5a2 2 0 0 1-2 2h-12a2 2 0 0 1-2-2v-5a2 2 0 0 1 2-2h1m5.5 0v-4a2 2 0 0 1 2-2h1a2 2 0 0 1 2 2v4m-10 4h-1a2 2 0 0 0-2 2v1a2 2 0 0 0 2 2h1m12 0h1a2 2 0 0 0 2-2v-1a2 2 0 0 0-2-2h-1m-4-2v-1a2 2 0 0 0-2-2h-1a2 2 0 0 0-2 2v1"></path><path d="M6.5 12.5h1"></path><path d="M16.5 12.5h1"></path></svg>