<svg role="img" viewBox="0 0 24 24" xmlns="http://www.w3.org/2000/svg">
  <title>Notion</title>
  <path d="M2.25 2A1.25 1.25 0 0 0 1 3.25v17.5A1.25 1.25 0 0 0 2.25 22h19.5A1.25 1.25 0 0 0 23 20.75V3.25A1.25 1.25 0 0 0 21.75 2H2.25zm1.531 3.422h4.28c.43 0 .75.344.75.766v11.75a.73.73 0 0 1-.734.734H6.266a.73.73 0 0 1-.734-.734V13.11l-.062 2.625c0 .422-.328.766-.75.766H3.5a.75.75 0 0 1-.75-.75v-8.5a.75.75 0 0 1 .75-.75h.922c.422 0 .766.328.766.75v3.421l.062-2.578a.73.73 0 0 1 .734-.734zm13.344-.172c-.438 0-.782.344-.782.766v8.438a.75.75 0 0 1-.75.75h-.937a.75.75 0 0 1-.75-.75V7.016c0-.422-.344-.766-.766-.766h-4.28a.75.75 0 0 0-.75.75v11.766c0 .422.328.75.75.75h1.812c.438 0 .766-.328.766-.75v-2.5l.062 2.5a.75.75 0 0 0 .75.75h4.28a.75.75 0 0 0 .75-.75V6.016a.75.75 0 0 0-.75-.766z" fill="#000000"/>
</svg>