<svg role="img" viewBox="0 0 24 24" xmlns="http://www.w3.org/2000/svg"><title>React</title><path d="M12.001 2.001a1 1 0 0 0-.466.113l-9.5 5.001a1 1 0 0 0-.533.886v10a1 1 0 0 0 .533.886l9.5 5a1 1 0 0 0 .934 0l9.5-5a1 1 0 0 0 .533-.886v-10a1 1 0 0 0-.533-.886l-9.5-5.001a1 1 0 0 0-.468-.113Zm0 1.865 8.5 4.474-3.106 1.635-5.395-3.113Zm-8.5 4.474 8.5 4.908v9.81l-8.5-4.474Zm17 0v8.81l-8.5 4.474v-9.81l8.5-4.908ZM12.001 12.5a.998.998 0 0 0-.5.136l-8.5 4.908 8.5 4.474 8.5-4.474-8.5-4.908a.998.998 0 0 0-.5-.136Z" fill="#61DAFB"/></svg>