<svg role="img" viewBox="0 0 24 24" xmlns="http://www.w3.org/2000/svg">
  <title>Sass</title>
  <path d="M12 0C5.373 0 0 5.373 0 12s5.373 12 12 12 12-5.373 12-12S18.627 0 12 0zm6.158 17.348c-.015.015-.03.015-.045.015l-1.02-.375c-.33-.09-.39-.24-.195-.555l2.4-4.23c-1.845-.585-2.895-1.125-2.895-2.07 0-.69.57-1.305 1.575-1.305.825 0 1.395.345 1.905.75l.015.015v.03l-1.05.705c-.195.12-.39.12-.525-.015l-.255-.255c-.27-.24-.555-.405-.93-.405-.435 0-.6.225-.6.54 0 .54.765.915 2.1 1.35 2.07.69 3.195 1.32 3.195 2.505 0 .825-.57 1.635-1.8 1.635-.9 0-1.575-.435-2.145-.885l-.105-.09zm-5.835 1.005l-.045.015c-1.32.33-2.67.435-4.02.435-3.15 0-5.115-1.665-5.115-4.56 0-2.31 1.26-3.885 3.3-3.885.69 0 1.275.12 1.77.285l.06.015v.015l-1.005.81c-.24.18-.285.345-.105.585l.765 1.08c-.735.12-1.335.54-1.335 1.365 0 .96.81 1.575 1.95 1.575.99 0 1.725-.375 2.22-.795l.3-.255c.21-.18.42-.18.6.015l.915.99c.21.24.165.48-.06.66zm-1.8-6.105c-.39-.15-.81-.225-1.26-.225-1.11 0-1.8.84-1.8 2.1 0 .615.225 1.095.69 1.41.48.33.99.435 1.515.435.195 0 .39-.015.585-.045.39-.045.765-.135 1.125-.27l-1.05-1.485c-.27-.375-.54-.51-.81-.3zm-2.73-3.48c-.6-.72-1.305-1.095-2.19-1.095-.57 0-1.095.195-1.515.525-.42.345-.69.81-.69 1.41 0 .6.24 1.125.645 1.515.42.39.93.585 1.53.585.87 0 1.59-.39 2.175-1.155l.045-.06z" fill="#BF4080"/></svg>