<svg role="img" viewBox="0 0 24 24" xmlns="http://www.w3.org/2000/svg">
  <title>Slack</title>
  <path d="M5.042 15.165a2.528 2.528 0 0 1-2.52 2.523A2.528 2.528 0 0 1 0 15.165a2.527 2.527 0 0 1 2.522-2.52h2.52v2.52zM6.313 15.165a2.527 2.527 0 0 1 2.521-2.522h5.042a2.527 2.527 0 0 1 2.521 2.522v5.042a2.527 2.527 0 0 1-2.521 2.521H6.313V15.165zm-1.27 6.313a2.528 2.528 0 0 1 2.521-2.521A2.528 2.528 0 0 1 10.084 24a2.528 2.528 0 0 1-2.521 2.521h-2.52v-2.52zM8.835 5.042a2.528 2.528 0 0 1 2.521-2.521A2.528 2.528 0 0 1 13.878 5.042a2.527 2.527 0 0 1-2.522 2.521h-2.52v-2.52zM8.835 6.313a2.527 2.527 0 0 1-2.522 2.521V3.791a2.527 2.527 0 0 1 2.522-2.521h5.042a2.527 2.527 0 0 1 2.521 2.521v5.042H8.835V6.313zm6.313-1.27a2.528 2.528 0 0 1-2.521 2.521A2.528 2.528 0 0 1 10.084 0a2.528 2.528 0 0 1 2.521-2.521h2.52v2.52z" fill="#E01E5A"/>
</svg>