<svg role="img" viewBox="0 0 24 24" xmlns="http://www.w3.org/2000/svg">
  <title>Spotify</title>
  <path d="M12 0C5.373 0 0 5.373 0 12s5.373 12 12 12 12-5.373 12-12S18.627 0 12 0zm5.111 17.406c-.278.444-.888.583-1.332.306-3.414-2.083-7.716-2.553-12.824-1.388-.528.083-.972-.306-.972-.833s.389-.916.916-.972c5.634-1.25 10.466-.722 14.378 1.611.472.25.61.888.333 1.332l-.028-.056zm.888-3.136c-.333.5-.971.666-1.471.361-3.58-2.193-8.994-2.83-14.074-1.554-.583.139-1.138-.25-1.25-.833-.11-.583.25-1.138.832-1.25 5.662-1.388 11.714-.666 15.823 1.888.5.306.666.972.361 1.472l.028-.056zm.139-3.303C22.473 7.525 16.529 7.275 9.696 9.164c-.694.194-1.332-.222-1.527-.916-.194-.694.223-1.332.916-1.527C16.918 4.775 23.64 5.053 28 8.442c.555.305.749 1.027.444 1.582-.305.555-1.027.75-1.582.444l.028-.027z" fill="#1DB954"/>
</svg>