<svg role="img" viewBox="0 0 24 24" xmlns="http://www.w3.org/2000/svg"><title>TypeScript</title><path d="M1.5 0 h21 v21 h-21z M3.18 1.68 v17.64 h17.64 v-17.64 z M11.25 15.12h2.13 v-7.92 l-3.96 1.44 v1.8l2.07-.72zM12.42 16.02 c.3 0 .57-.06 .78-.15 .24-.12 .42-.27 .57-.48 .15-.21 .24-.45 .24-.75 0-.21-.06-.39-.15-.54s-.24-.27-.42-.36c-.18-.09-.42-.14-.69-.14 h-.39 v2.42z M12.51 17.01h.42c.48 0 .87-.09 1.14-.24 .3-.18 .54-.42 .72-.75 .18-.33 .27-.72 .27-1.14 0-.45-.09-.84-.27-1.14-.18-.33-.42-.57-.72-.75-.27-.15-.63-.24-1.08-.24h-.48z" fill="#3178C6"/></svg>