<svg role="img" viewBox="0 0 24 24" xmlns="http://www.w3.org/2000/svg"><title>Visual Studio Code</title><path d="m23.15 2.85-1.42 1.42-3.27-3.27-1.42 1.42L20.31 6l-2.27 2.27L16.62 7 8.35 15.27l-1.41-1.41-3.13 3.13-1.42-1.42 3.13-3.13-1.42-1.42L0 15.45l1.42 1.42 1.41-1.42 3.13 3.13 1.42-1.42-3.13-3.13L8.55 9.73l1.3 1.3L7.58 13.3l1.42 1.42 2.27-2.27-3.27-3.27 1.41-1.41 8.27 8.27-1.41 1.41-2.27-2.27-2.27 2.27-1.42-1.42 2.27-2.27-3.27-3.27 1.41-1.41L15.45 24l1.42-1.42 1.41 1.42 3.13-3.13 1.42 1.42-3.13 3.13 1.42 1.42L24 8.55l-1.42-1.42-1.41 1.42-3.13-3.13 1.42-1.42 3.13 3.13Zm-8.7-1.42L13 2.85l-8.42 8.42-1.43-1.42L1.73 11.27 0 13v.85l1.42 1.42.7.7 1.42 1.42.7.7.7.7 1.42 1.42.7.7 1.42-1.42.7-.7.7-.7 1.42-1.42L13 11.27l-1.42-1.42Z" fill="#007ACC"/></svg>